<?xml version="1.0" encoding="utf-8" standalone="no"?>
<!DOCTYPE svg PUBLIC "-//W3C//DTD SVG 1.1//EN"
  "http://www.w3.org/Graphics/SVG/1.1/DTD/svg11.dtd">
<svg xmlns:xlink="http://www.w3.org/1999/xlink" width="460.8pt" height="345.6pt" viewBox="0 0 460.8 345.6" xmlns="http://www.w3.org/2000/svg" version="1.1">
 <metadata>
  <rdf:RDF xmlns:dc="http://purl.org/dc/elements/1.1/" xmlns:cc="http://creativecommons.org/ns#" xmlns:rdf="http://www.w3.org/1999/02/22-rdf-syntax-ns#">
   <cc:Work>
    <dc:type rdf:resource="http://purl.org/dc/dcmitype/StillImage"/>
    <dc:date>2023-12-10T07:52:20.930193</dc:date>
    <dc:format>image/svg+xml</dc:format>
    <dc:creator>
     <cc:Agent>
      <dc:title>Matplotlib v3.6.2, https://matplotlib.org/</dc:title>
     </cc:Agent>
    </dc:creator>
   </cc:Work>
  </rdf:RDF>
 </metadata>
 <defs>
  <style type="text/css">*{stroke-linejoin: round; stroke-linecap: butt}</style>
 </defs>
 <g id="figure_1">
  <g id="patch_1">
   <path d="M 0 345.6 
L 460.8 345.6 
L 460.8 0 
L 0 0 
z
" style="fill: #ffffff; stroke: #ffffff; stroke-linejoin: miter"/>
  </g>
  <g id="axes_1">
   <g id="patch_2">
    <path d="M 44.460938 296.400281 
L 374.793969 296.400281 
L 374.793969 62.65 
L 44.460938 62.65 
z
" style="fill: #ffffff"/>
   </g>
   <g id="matplotlib.axis_1">
    <g id="xtick_1">
     <g id="line2d_1">
      <path d="M 96.869949 296.400281 
L 96.869949 62.65 
" clip-path="url(#p2c5d2efac0)" style="fill: none; stroke: #cccccc; stroke-width: 0.2"/>
     </g>
     <g id="text_1">
      <!-- 2 -->
      <g style="fill: #4d4d4d" transform="translate(94.817528 307.717312) scale(0.09 -0.09)">
       <defs>
        <path id="ArialNarrow-32" d="M 2641 541 
L 2641 0 
L 156 0 
Q 147 328 355 734 
Q 563 1141 1116 1694 
Q 1763 2338 1963 2689 
Q 2163 3041 2163 3344 
Q 2163 3694 1958 3914 
Q 1753 4134 1453 4134 
Q 1131 4134 925 3896 
Q 719 3659 719 3216 
L 244 3275 
Q 294 3934 617 4267 
Q 941 4600 1469 4600 
Q 2044 4600 2339 4212 
Q 2634 3825 2634 3331 
Q 2634 2894 2403 2492 
Q 2172 2091 1525 1422 
Q 1113 1000 992 847 
Q 872 694 797 541 
L 2641 541 
z
" transform="scale(0.015625)"/>
       </defs>
       <use xlink:href="#ArialNarrow-32"/>
      </g>
     </g>
    </g>
    <g id="xtick_2">
     <g id="line2d_2">
      <path d="M 173.654085 296.400281 
L 173.654085 62.65 
" clip-path="url(#p2c5d2efac0)" style="fill: none; stroke: #cccccc; stroke-width: 0.2"/>
     </g>
     <g id="text_2">
      <!-- 3 -->
      <g style="fill: #4d4d4d" transform="translate(171.601664 307.717312) scale(0.09 -0.09)">
       <defs>
        <path id="ArialNarrow-33" d="M 213 1209 
L 675 1284 
Q 819 384 1403 384 
Q 1719 384 1950 651 
Q 2181 919 2181 1344 
Q 2181 1744 1968 1987 
Q 1756 2231 1447 2231 
Q 1316 2231 1122 2169 
L 1175 2663 
L 1247 2656 
Q 1588 2656 1800 2865 
Q 2013 3075 2013 3425 
Q 2013 3747 1834 3942 
Q 1656 4138 1400 4138 
Q 1134 4138 951 3933 
Q 769 3728 719 3313 
L 259 3413 
Q 347 4000 653 4300 
Q 959 4600 1394 4600 
Q 1850 4600 2169 4262 
Q 2488 3925 2488 3413 
Q 2488 3100 2352 2859 
Q 2216 2619 1972 2481 
Q 2197 2419 2344 2275 
Q 2491 2131 2581 1890 
Q 2672 1650 2672 1353 
Q 2672 722 2300 320 
Q 1928 -81 1409 -81 
Q 928 -81 593 269 
Q 259 619 213 1209 
z
" transform="scale(0.015625)"/>
       </defs>
       <use xlink:href="#ArialNarrow-33"/>
      </g>
     </g>
    </g>
    <g id="xtick_3">
     <g id="line2d_3">
      <path d="M 250.438221 296.400281 
L 250.438221 62.65 
" clip-path="url(#p2c5d2efac0)" style="fill: none; stroke: #cccccc; stroke-width: 0.2"/>
     </g>
     <g id="text_3">
      <!-- 4 -->
      <g style="fill: #4d4d4d" transform="translate(248.3858 307.717312) scale(0.09 -0.09)">
       <defs>
        <path id="ArialNarrow-34" d="M 1688 0 
L 1688 1097 
L 59 1097 
L 59 1613 
L 1775 4581 
L 2150 4581 
L 2150 1613 
L 2659 1613 
L 2659 1097 
L 2150 1097 
L 2150 0 
L 1688 0 
z
M 1688 1613 
L 1688 3678 
L 513 1613 
L 1688 1613 
z
" transform="scale(0.015625)"/>
       </defs>
       <use xlink:href="#ArialNarrow-34"/>
      </g>
     </g>
    </g>
    <g id="xtick_4">
     <g id="line2d_4">
      <path d="M 327.222357 296.400281 
L 327.222357 62.65 
" clip-path="url(#p2c5d2efac0)" style="fill: none; stroke: #cccccc; stroke-width: 0.2"/>
     </g>
     <g id="text_4">
      <!-- 5 -->
      <g style="fill: #4d4d4d" transform="translate(325.169935 307.717312) scale(0.09 -0.09)">
       <defs>
        <path id="ArialNarrow-35" d="M 209 1200 
L 694 1250 
Q 750 813 948 598 
Q 1147 384 1409 384 
Q 1738 384 1975 686 
Q 2213 988 2213 1509 
Q 2213 2000 1983 2270 
Q 1753 2541 1406 2541 
Q 1197 2541 1014 2423 
Q 831 2306 725 2097 
L 291 2166 
L 656 4519 
L 2522 4519 
L 2522 3981 
L 1025 3981 
L 822 2750 
Q 1156 3038 1531 3038 
Q 2003 3038 2351 2636 
Q 2700 2234 2700 1553 
Q 2700 881 2351 401 
Q 2003 -78 1416 -78 
Q 928 -78 592 261 
Q 256 600 209 1200 
z
" transform="scale(0.015625)"/>
       </defs>
       <use xlink:href="#ArialNarrow-35"/>
      </g>
     </g>
    </g>
    <g id="xtick_5">
     <g id="line2d_5">
      <path d="M 58.477882 296.400281 
L 58.477882 62.65 
" clip-path="url(#p2c5d2efac0)" style="fill: none; stroke: #cccccc; stroke-width: 0.15"/>
     </g>
    </g>
    <g id="xtick_6">
     <g id="line2d_6">
      <path d="M 135.262017 296.400281 
L 135.262017 62.65 
" clip-path="url(#p2c5d2efac0)" style="fill: none; stroke: #cccccc; stroke-width: 0.15"/>
     </g>
    </g>
    <g id="xtick_7">
     <g id="line2d_7">
      <path d="M 212.046153 296.400281 
L 212.046153 62.65 
" clip-path="url(#p2c5d2efac0)" style="fill: none; stroke: #cccccc; stroke-width: 0.15"/>
     </g>
    </g>
    <g id="xtick_8">
     <g id="line2d_8">
      <path d="M 288.830289 296.400281 
L 288.830289 62.65 
" clip-path="url(#p2c5d2efac0)" style="fill: none; stroke: #cccccc; stroke-width: 0.15"/>
     </g>
    </g>
    <g id="xtick_9">
     <g id="line2d_9">
      <path d="M 365.614425 296.400281 
L 365.614425 62.65 
" clip-path="url(#p2c5d2efac0)" style="fill: none; stroke: #cccccc; stroke-width: 0.15"/>
     </g>
    </g>
   </g>
   <g id="matplotlib.axis_2">
    <g id="ytick_1">
     <g id="line2d_10">
      <path d="M 44.460938 289.392294 
L 374.793969 289.392294 
" clip-path="url(#p2c5d2efac0)" style="fill: none; stroke: #cccccc; stroke-width: 0.2"/>
     </g>
     <g id="text_5">
      <!-- 10 -->
      <g style="fill: #4d4d4d" transform="translate(31.37625 291.718935) scale(0.09 -0.09)">
       <defs>
        <path id="ArialNarrow-31" d="M 1947 0 
L 1484 0 
L 1484 3584 
Q 1325 3397 1056 3201 
Q 788 3006 563 2906 
L 563 3450 
Q 944 3669 1236 3984 
Q 1528 4300 1647 4600 
L 1947 4600 
L 1947 0 
z
" transform="scale(0.015625)"/>
        <path id="ArialNarrow-30" d="M 209 2259 
Q 209 3413 520 4006 
Q 831 4600 1438 4600 
Q 1975 4600 2284 4119 
Q 2659 3538 2659 2259 
Q 2659 1113 2350 517 
Q 2041 -78 1431 -78 
Q 894 -78 551 447 
Q 209 972 209 2259 
z
M 681 2259 
Q 681 1144 895 764 
Q 1109 384 1444 384 
Q 1759 384 1971 768 
Q 2184 1153 2184 2259 
Q 2184 3378 1970 3756 
Q 1756 4134 1416 4134 
Q 1103 4134 892 3750 
Q 681 3366 681 2259 
z
" transform="scale(0.015625)"/>
       </defs>
       <use xlink:href="#ArialNarrow-31"/>
       <use xlink:href="#ArialNarrow-30" x="45.605469"/>
      </g>
     </g>
    </g>
    <g id="ytick_2">
     <g id="line2d_11">
      <path d="M 44.460938 244.179474 
L 374.793969 244.179474 
" clip-path="url(#p2c5d2efac0)" style="fill: none; stroke: #cccccc; stroke-width: 0.2"/>
     </g>
     <g id="text_6">
      <!-- 15 -->
      <g style="fill: #4d4d4d" transform="translate(31.37625 246.506114) scale(0.09 -0.09)">
       <use xlink:href="#ArialNarrow-31"/>
       <use xlink:href="#ArialNarrow-35" x="45.605469"/>
      </g>
     </g>
    </g>
    <g id="ytick_3">
     <g id="line2d_12">
      <path d="M 44.460938 198.966653 
L 374.793969 198.966653 
" clip-path="url(#p2c5d2efac0)" style="fill: none; stroke: #cccccc; stroke-width: 0.2"/>
     </g>
     <g id="text_7">
      <!-- 20 -->
      <g style="fill: #4d4d4d" transform="translate(31.37625 201.293294) scale(0.09 -0.09)">
       <use xlink:href="#ArialNarrow-32"/>
       <use xlink:href="#ArialNarrow-30" x="45.605469"/>
      </g>
     </g>
    </g>
    <g id="ytick_4">
     <g id="line2d_13">
      <path d="M 44.460938 153.753833 
L 374.793969 153.753833 
" clip-path="url(#p2c5d2efac0)" style="fill: none; stroke: #cccccc; stroke-width: 0.2"/>
     </g>
     <g id="text_8">
      <!-- 25 -->
      <g style="fill: #4d4d4d" transform="translate(31.37625 156.080474) scale(0.09 -0.09)">
       <use xlink:href="#ArialNarrow-32"/>
       <use xlink:href="#ArialNarrow-35" x="45.605469"/>
      </g>
     </g>
    </g>
    <g id="ytick_5">
     <g id="line2d_14">
      <path d="M 44.460938 108.541013 
L 374.793969 108.541013 
" clip-path="url(#p2c5d2efac0)" style="fill: none; stroke: #cccccc; stroke-width: 0.2"/>
     </g>
     <g id="text_9">
      <!-- 30 -->
      <g style="fill: #4d4d4d" transform="translate(31.37625 110.867653) scale(0.09 -0.09)">
       <use xlink:href="#ArialNarrow-33"/>
       <use xlink:href="#ArialNarrow-30" x="45.605469"/>
      </g>
     </g>
    </g>
    <g id="ytick_6">
     <g id="line2d_15">
      <path d="M 44.460938 63.328192 
L 374.793969 63.328192 
" clip-path="url(#p2c5d2efac0)" style="fill: none; stroke: #cccccc; stroke-width: 0.2"/>
     </g>
     <g id="text_10">
      <!-- 35 -->
      <g style="fill: #4d4d4d" transform="translate(31.37625 65.654833) scale(0.09 -0.09)">
       <use xlink:href="#ArialNarrow-33"/>
       <use xlink:href="#ArialNarrow-35" x="45.605469"/>
      </g>
     </g>
    </g>
    <g id="ytick_7">
     <g id="line2d_16">
      <path d="M 44.460938 266.785884 
L 374.793969 266.785884 
" clip-path="url(#p2c5d2efac0)" style="fill: none; stroke: #cccccc; stroke-width: 0.15"/>
     </g>
    </g>
    <g id="ytick_8">
     <g id="line2d_17">
      <path d="M 44.460938 221.573064 
L 374.793969 221.573064 
" clip-path="url(#p2c5d2efac0)" style="fill: none; stroke: #cccccc; stroke-width: 0.15"/>
     </g>
    </g>
    <g id="ytick_9">
     <g id="line2d_18">
      <path d="M 44.460938 176.360243 
L 374.793969 176.360243 
" clip-path="url(#p2c5d2efac0)" style="fill: none; stroke: #cccccc; stroke-width: 0.15"/>
     </g>
    </g>
    <g id="ytick_10">
     <g id="line2d_19">
      <path d="M 44.460938 131.147423 
L 374.793969 131.147423 
" clip-path="url(#p2c5d2efac0)" style="fill: none; stroke: #cccccc; stroke-width: 0.15"/>
     </g>
    </g>
    <g id="ytick_11">
     <g id="line2d_20">
      <path d="M 44.460938 85.934602 
L 374.793969 85.934602 
" clip-path="url(#p2c5d2efac0)" style="fill: none; stroke: #cccccc; stroke-width: 0.15"/>
     </g>
    </g>
   </g>
   <g id="PathCollection_1">
    <path d="M 144.476114 191.696543 
C 144.946174 191.696543 145.397045 191.509786 145.729428 191.177403 
C 146.061811 190.845021 146.248568 190.39415 146.248568 189.924089 
C 146.248568 189.454029 146.061811 189.003158 145.729428 188.670775 
C 145.397045 188.338392 144.946174 188.151635 144.476114 188.151635 
C 144.006054 188.151635 143.555182 188.338392 143.2228 188.670775 
C 142.890417 189.003158 142.70366 189.454029 142.70366 189.924089 
C 142.70366 190.39415 142.890417 190.845021 143.2228 191.177403 
C 143.555182 191.509786 144.006054 191.696543 144.476114 191.696543 
z
" clip-path="url(#p2c5d2efac0)" style="fill: #57db5f; stroke: #57db5f; stroke-width: 0.886227"/>
    <path d="M 164.056068 191.696543 
C 164.526129 191.696543 164.977 191.509786 165.309383 191.177403 
C 165.641765 190.845021 165.828522 190.39415 165.828522 189.924089 
C 165.828522 189.454029 165.641765 189.003158 165.309383 188.670775 
C 164.977 188.338392 164.526129 188.151635 164.056068 188.151635 
C 163.586008 188.151635 163.135137 188.338392 162.802754 188.670775 
C 162.470372 189.003158 162.283615 189.454029 162.283615 189.924089 
C 162.283615 190.39415 162.470372 190.845021 162.802754 191.177403 
C 163.135137 191.509786 163.586008 191.696543 164.056068 191.696543 
z
" clip-path="url(#p2c5d2efac0)" style="fill: #57db5f; stroke: #57db5f; stroke-width: 0.886227"/>
    <path d="M 121.440873 175.419928 
C 121.910933 175.419928 122.361804 175.233171 122.694187 174.900788 
C 123.02657 174.568405 123.213327 174.117534 123.213327 173.647474 
C 123.213327 173.177414 123.02657 172.726543 122.694187 172.39416 
C 122.361804 172.061777 121.910933 171.87502 121.440873 171.87502 
C 120.970813 171.87502 120.519942 172.061777 120.187559 172.39416 
C 119.855176 172.726543 119.668419 173.177414 119.668419 173.647474 
C 119.668419 174.117534 119.855176 174.568405 120.187559 174.900788 
C 120.519942 175.233171 120.970813 175.419928 121.440873 175.419928 
z
" clip-path="url(#p2c5d2efac0)" style="fill: #57db5f; stroke: #57db5f; stroke-width: 0.886227"/>
    <path d="M 190.162675 188.079518 
C 190.632735 188.079518 191.083606 187.892761 191.415989 187.560378 
C 191.748372 187.227995 191.935129 186.777124 191.935129 186.307064 
C 191.935129 185.837003 191.748372 185.386132 191.415989 185.05375 
C 191.083606 184.721367 190.632735 184.53461 190.162675 184.53461 
C 189.692614 184.53461 189.241743 184.721367 188.909361 185.05375 
C 188.576978 185.386132 188.390221 185.837003 188.390221 186.307064 
C 188.390221 186.777124 188.576978 187.227995 188.909361 187.560378 
C 189.241743 187.892761 189.692614 188.079518 190.162675 188.079518 
z
" clip-path="url(#p2c5d2efac0)" style="fill: #db5f57; stroke: #db5f57; stroke-width: 0.886227"/>
    <path d="M 207.439105 212.494441 
C 207.909166 212.494441 208.360037 212.307684 208.692419 211.975301 
C 209.024802 211.642918 209.211559 211.192047 209.211559 210.721987 
C 209.211559 210.251926 209.024802 209.801055 208.692419 209.468673 
C 208.360037 209.13629 207.909166 208.949533 207.439105 208.949533 
C 206.969045 208.949533 206.518174 209.13629 206.185791 209.468673 
C 205.853408 209.801055 205.666651 210.251926 205.666651 210.721987 
C 205.666651 211.192047 205.853408 211.642918 206.185791 211.975301 
C 206.518174 212.307684 206.969045 212.494441 207.439105 212.494441 
z
" clip-path="url(#p2c5d2efac0)" style="fill: #db5f57; stroke: #db5f57; stroke-width: 0.886227"/>
    <path d="M 208.974788 217.919979 
C 209.444848 217.919979 209.895719 217.733222 210.228102 217.400839 
C 210.560485 217.068456 210.747242 216.617585 210.747242 216.147525 
C 210.747242 215.677465 210.560485 215.226594 210.228102 214.894211 
C 209.895719 214.561828 209.444848 214.375071 208.974788 214.375071 
C 208.504728 214.375071 208.053857 214.561828 207.721474 214.894211 
C 207.389091 215.226594 207.202334 215.677465 207.202334 216.147525 
C 207.202334 216.617585 207.389091 217.068456 207.721474 217.400839 
C 208.053857 217.733222 208.504728 217.919979 208.974788 217.919979 
z
" clip-path="url(#p2c5d2efac0)" style="fill: #db5f57; stroke: #db5f57; stroke-width: 0.886227"/>
    <path d="M 217.421043 252.281722 
C 217.891103 252.281722 218.341974 252.094966 218.674357 251.762583 
C 219.00674 251.4302 219.193497 250.979329 219.193497 250.509269 
C 219.193497 250.039208 219.00674 249.588337 218.674357 249.255954 
C 218.341974 248.923572 217.891103 248.736815 217.421043 248.736815 
C 216.950983 248.736815 216.500112 248.923572 216.167729 249.255954 
C 215.835346 249.588337 215.648589 250.039208 215.648589 250.509269 
C 215.648589 250.979329 215.835346 251.4302 216.167729 251.762583 
C 216.500112 252.094966 216.950983 252.281722 217.421043 252.281722 
z
" clip-path="url(#p2c5d2efac0)" style="fill: #db5f57; stroke: #db5f57; stroke-width: 0.886227"/>
    <path d="M 188.243071 160.951825 
C 188.713132 160.951825 189.164003 160.765068 189.496385 160.432686 
C 189.828768 160.100303 190.015525 159.649432 190.015525 159.179371 
C 190.015525 158.709311 189.828768 158.25844 189.496385 157.926057 
C 189.164003 157.593675 188.713132 157.406918 188.243071 157.406918 
C 187.773011 157.406918 187.32214 157.593675 186.989757 157.926057 
C 186.657374 158.25844 186.470617 158.709311 186.470617 159.179371 
C 186.470617 159.649432 186.657374 160.100303 186.989757 160.432686 
C 187.32214 160.765068 187.773011 160.951825 188.243071 160.951825 
z
" clip-path="url(#p2c5d2efac0)" style="fill: #57db5f; stroke: #57db5f; stroke-width: 0.886227"/>
    <path d="M 185.171706 175.419928 
C 185.641766 175.419928 186.092637 175.233171 186.42502 174.900788 
C 186.757403 174.568405 186.94416 174.117534 186.94416 173.647474 
C 186.94416 173.177414 186.757403 172.726543 186.42502 172.39416 
C 186.092637 172.061777 185.641766 171.87502 185.171706 171.87502 
C 184.701646 171.87502 184.250774 172.061777 183.918392 172.39416 
C 183.586009 172.726543 183.399252 173.177414 183.399252 173.647474 
C 183.399252 174.117534 183.586009 174.568405 183.918392 174.900788 
C 184.250774 175.233171 184.701646 175.419928 185.171706 175.419928 
z
" clip-path="url(#p2c5d2efac0)" style="fill: #57db5f; stroke: #57db5f; stroke-width: 0.886227"/>
    <path d="M 207.439105 207.973158 
C 207.909166 207.973158 208.360037 207.786402 208.692419 207.454019 
C 209.024802 207.121636 209.211559 206.670765 209.211559 206.200705 
C 209.211559 205.730644 209.024802 205.279773 208.692419 204.94739 
C 208.360037 204.615008 207.909166 204.428251 207.439105 204.428251 
C 206.969045 204.428251 206.518174 204.615008 206.185791 204.94739 
C 205.853408 205.279773 205.666651 205.730644 205.666651 206.200705 
C 205.666651 206.670765 205.853408 207.121636 206.185791 207.454019 
C 206.518174 207.786402 206.969045 207.973158 207.439105 207.973158 
z
" clip-path="url(#p2c5d2efac0)" style="fill: #57db5f; stroke: #57db5f; stroke-width: 0.886227"/>
    <path d="M 207.439105 220.632748 
C 207.909166 220.632748 208.360037 220.445991 208.692419 220.113608 
C 209.024802 219.781226 209.211559 219.330355 209.211559 218.860294 
C 209.211559 218.390234 209.024802 217.939363 208.692419 217.60698 
C 208.360037 217.274597 207.909166 217.08784 207.439105 217.08784 
C 206.969045 217.08784 206.518174 217.274597 206.185791 217.60698 
C 205.853408 217.939363 205.666651 218.390234 205.666651 218.860294 
C 205.666651 219.330355 205.853408 219.781226 206.185791 220.113608 
C 206.518174 220.445991 206.969045 220.632748 207.439105 220.632748 
z
" clip-path="url(#p2c5d2efac0)" style="fill: #57db5f; stroke: #57db5f; stroke-width: 0.886227"/>
    <path d="M 255.813111 233.292338 
C 256.283171 233.292338 256.734042 233.105581 257.066425 232.773198 
C 257.398808 232.440815 257.585565 231.989944 257.585565 231.519884 
C 257.585565 231.049824 257.398808 230.598953 257.066425 230.26657 
C 256.734042 229.934187 256.283171 229.74743 255.813111 229.74743 
C 255.343051 229.74743 254.89218 229.934187 254.559797 230.26657 
C 254.227414 230.598953 254.040657 231.049824 254.040657 231.519884 
C 254.040657 231.989944 254.227414 232.440815 254.559797 232.773198 
C 254.89218 233.105581 255.343051 233.292338 255.813111 233.292338 
z
" clip-path="url(#p2c5d2efac0)" style="fill: #db5f57; stroke: #db5f57; stroke-width: 0.886227"/>
    <path d="M 229.706505 225.15403 
C 230.176565 225.15403 230.627436 224.967273 230.959819 224.634891 
C 231.292202 224.302508 231.478959 223.851637 231.478959 223.381576 
C 231.478959 222.911516 231.292202 222.460645 230.959819 222.128262 
C 230.627436 221.795879 230.176565 221.609123 229.706505 221.609123 
C 229.236444 221.609123 228.785573 221.795879 228.453191 222.128262 
C 228.120808 222.460645 227.934051 222.911516 227.934051 223.381576 
C 227.934051 223.851637 228.120808 224.302508 228.453191 224.634891 
C 228.785573 224.967273 229.236444 225.15403 229.706505 225.15403 
z
" clip-path="url(#p2c5d2efac0)" style="fill: #db5f57; stroke: #db5f57; stroke-width: 0.886227"/>
    <path d="M 233.545711 244.143415 
C 234.015772 244.143415 234.466643 243.956658 234.799026 243.624275 
C 235.131408 243.291892 235.318165 242.841021 235.318165 242.370961 
C 235.318165 241.900901 235.131408 241.45003 234.799026 241.117647 
C 234.466643 240.785264 234.015772 240.598507 233.545711 240.598507 
C 233.075651 240.598507 232.62478 240.785264 232.292397 241.117647 
C 231.960015 241.45003 231.773258 241.900901 231.773258 242.370961 
C 231.773258 242.841021 231.960015 243.291892 232.292397 243.624275 
C 232.62478 243.956658 233.075651 244.143415 233.545711 244.143415 
z
" clip-path="url(#p2c5d2efac0)" style="fill: #db5f57; stroke: #db5f57; stroke-width: 0.886227"/>
    <path d="M 346.418391 287.547722 
C 346.888452 287.547722 347.339323 287.360965 347.671705 287.028583 
C 348.004088 286.6962 348.190845 286.245329 348.190845 285.775268 
C 348.190845 285.305208 348.004088 284.854337 347.671705 284.521954 
C 347.339323 284.189572 346.888452 284.002815 346.418391 284.002815 
C 345.948331 284.002815 345.49746 284.189572 345.165077 284.521954 
C 344.832694 284.854337 344.645937 285.305208 344.645937 285.775268 
C 344.645937 286.245329 344.832694 286.6962 345.165077 287.028583 
C 345.49746 287.360965 345.948331 287.547722 346.418391 287.547722 
z
" clip-path="url(#p2c5d2efac0)" style="fill: #db5f57; stroke: #db5f57; stroke-width: 0.886227"/>
    <path d="M 359.778831 287.547722 
C 360.248891 287.547722 360.699762 287.360965 361.032145 287.028583 
C 361.364528 286.6962 361.551285 286.245329 361.551285 285.775268 
C 361.551285 285.305208 361.364528 284.854337 361.032145 284.521954 
C 360.699762 284.189572 360.248891 284.002815 359.778831 284.002815 
C 359.308771 284.002815 358.8579 284.189572 358.525517 284.521954 
C 358.193134 284.854337 358.006377 285.305208 358.006377 285.775268 
C 358.006377 286.245329 358.193134 286.6962 358.525517 287.028583 
C 358.8579 287.360965 359.308771 287.547722 359.778831 287.547722 
z
" clip-path="url(#p2c5d2efac0)" style="fill: #db5f57; stroke: #db5f57; stroke-width: 0.886227"/>
    <path d="M 353.712884 248.664697 
C 354.182944 248.664697 354.633816 248.47794 354.966198 248.145557 
C 355.298581 247.813174 355.485338 247.362303 355.485338 246.892243 
C 355.485338 246.422183 355.298581 245.971312 354.966198 245.638929 
C 354.633816 245.306546 354.182944 245.119789 353.712884 245.119789 
C 353.242824 245.119789 352.791953 245.306546 352.45957 245.638929 
C 352.127187 245.971312 351.94043 246.422183 351.94043 246.892243 
C 351.94043 247.362303 352.127187 247.813174 352.45957 248.145557 
C 352.791953 248.47794 353.242824 248.664697 353.712884 248.664697 
z
" clip-path="url(#p2c5d2efac0)" style="fill: #db5f57; stroke: #db5f57; stroke-width: 0.886227"/>
    <path d="M 112.226777 88.611313 
C 112.696837 88.611313 113.147708 88.424556 113.480091 88.092173 
C 113.812474 87.75979 113.999231 87.308919 113.999231 86.838859 
C 113.999231 86.368799 113.812474 85.917928 113.480091 85.585545 
C 113.147708 85.253162 112.696837 85.066405 112.226777 85.066405 
C 111.756716 85.066405 111.305845 85.253162 110.973463 85.585545 
C 110.64108 85.917928 110.454323 86.368799 110.454323 86.838859 
C 110.454323 87.308919 110.64108 87.75979 110.973463 88.092173 
C 111.305845 88.424556 111.756716 88.611313 112.226777 88.611313 
z
" clip-path="url(#p2c5d2efac0)" style="fill: #57db5f; stroke: #57db5f; stroke-width: 0.886227"/>
    <path d="M 67.308057 106.696441 
C 67.778117 106.696441 68.228988 106.509684 68.561371 106.177301 
C 68.893754 105.844918 69.080511 105.394047 69.080511 104.923987 
C 69.080511 104.453927 68.893754 104.003056 68.561371 103.670673 
C 68.228988 103.33829 67.778117 103.151533 67.308057 103.151533 
C 66.837997 103.151533 66.387126 103.33829 66.054743 103.670673 
C 65.72236 104.003056 65.535603 104.453927 65.535603 104.923987 
C 65.535603 105.394047 65.72236 105.844918 66.054743 106.177301 
C 66.387126 106.509684 66.837997 106.696441 67.308057 106.696441 
z
" clip-path="url(#p2c5d2efac0)" style="fill: #57db5f; stroke: #57db5f; stroke-width: 0.886227"/>
    <path d="M 84.200567 75.047467 
C 84.670627 75.047467 85.121498 74.86071 85.453881 74.528327 
C 85.786264 74.195944 85.973021 73.745073 85.973021 73.275013 
C 85.973021 72.804953 85.786264 72.354081 85.453881 72.021699 
C 85.121498 71.689316 84.670627 71.502559 84.200567 71.502559 
C 83.730507 71.502559 83.279636 71.689316 82.947253 72.021699 
C 82.61487 72.354081 82.428113 72.804953 82.428113 73.275013 
C 82.428113 73.745073 82.61487 74.195944 82.947253 74.528327 
C 83.279636 74.86071 83.730507 75.047467 84.200567 75.047467 
z
" clip-path="url(#p2c5d2efac0)" style="fill: #57db5f; stroke: #57db5f; stroke-width: 0.886227"/>
    <path d="M 132.574573 187.175261 
C 133.044633 187.175261 133.495504 186.988504 133.827887 186.656121 
C 134.16027 186.323739 134.347027 185.872868 134.347027 185.402807 
C 134.347027 184.932747 134.16027 184.481876 133.827887 184.149493 
C 133.495504 183.81711 133.044633 183.630353 132.574573 183.630353 
C 132.104512 183.630353 131.653641 183.81711 131.321259 184.149493 
C 130.988876 184.481876 130.802119 184.932747 130.802119 185.402807 
C 130.802119 185.872868 130.988876 186.323739 131.321259 186.656121 
C 131.653641 186.988504 132.104512 187.175261 132.574573 187.175261 
z
" clip-path="url(#p2c5d2efac0)" style="fill: #db5f57; stroke: #db5f57; stroke-width: 0.886227"/>
    <path d="M 213.581836 241.430646 
C 214.051896 241.430646 214.502767 241.243889 214.83515 240.911506 
C 215.167533 240.579123 215.35429 240.128252 215.35429 239.658192 
C 215.35429 239.188131 215.167533 238.73726 214.83515 238.404878 
C 214.502767 238.072495 214.051896 237.885738 213.581836 237.885738 
C 213.111776 237.885738 212.660905 238.072495 212.328522 238.404878 
C 211.996139 238.73726 211.809382 239.188131 211.809382 239.658192 
C 211.809382 240.128252 211.996139 240.579123 212.328522 240.911506 
C 212.660905 241.243889 213.111776 241.430646 213.581836 241.430646 
z
" clip-path="url(#p2c5d2efac0)" style="fill: #db5f57; stroke: #db5f57; stroke-width: 0.886227"/>
    <path d="M 207.055185 244.143415 
C 207.525245 244.143415 207.976116 243.956658 208.308499 243.624275 
C 208.640882 243.291892 208.827638 242.841021 208.827638 242.370961 
C 208.827638 241.900901 208.640882 241.45003 208.308499 241.117647 
C 207.976116 240.785264 207.525245 240.598507 207.055185 240.598507 
C 206.585124 240.598507 206.134253 240.785264 205.80187 241.117647 
C 205.469488 241.45003 205.282731 241.900901 205.282731 242.370961 
C 205.282731 242.841021 205.469488 243.291892 205.80187 243.624275 
C 206.134253 243.956658 206.585124 244.143415 207.055185 244.143415 
z
" clip-path="url(#p2c5d2efac0)" style="fill: #db5f57; stroke: #db5f57; stroke-width: 0.886227"/>
    <path d="M 238.15276 261.324287 
C 238.62282 261.324287 239.073691 261.13753 239.406074 260.805147 
C 239.738457 260.472764 239.925213 260.021893 239.925213 259.551833 
C 239.925213 259.081772 239.738457 258.630901 239.406074 258.298519 
C 239.073691 257.966136 238.62282 257.779379 238.15276 257.779379 
C 237.682699 257.779379 237.231828 257.966136 236.899445 258.298519 
C 236.567063 258.630901 236.380306 259.081772 236.380306 259.551833 
C 236.380306 260.021893 236.567063 260.472764 236.899445 260.805147 
C 237.231828 261.13753 237.682699 261.324287 238.15276 261.324287 
z
" clip-path="url(#p2c5d2efac0)" style="fill: #db5f57; stroke: #db5f57; stroke-width: 0.886227"/>
    <path d="M 238.53668 207.973158 
C 239.006741 207.973158 239.457612 207.786402 239.789994 207.454019 
C 240.122377 207.121636 240.309134 206.670765 240.309134 206.200705 
C 240.309134 205.730644 240.122377 205.279773 239.789994 204.94739 
C 239.457612 204.615008 239.006741 204.428251 238.53668 204.428251 
C 238.06662 204.428251 237.615749 204.615008 237.283366 204.94739 
C 236.950983 205.279773 236.764226 205.730644 236.764226 206.200705 
C 236.764226 206.670765 236.950983 207.121636 237.283366 207.454019 
C 237.615749 207.786402 238.06662 207.973158 238.53668 207.973158 
z
" clip-path="url(#p2c5d2efac0)" style="fill: #db5f57; stroke: #db5f57; stroke-width: 0.886227"/>
    <path d="M 91.878981 134.72839 
C 92.349041 134.72839 92.799912 134.541633 93.132295 134.20925 
C 93.464678 133.876867 93.651435 133.425996 93.651435 132.955936 
C 93.651435 132.485875 93.464678 132.035004 93.132295 131.702622 
C 92.799912 131.370239 92.349041 131.183482 91.878981 131.183482 
C 91.40892 131.183482 90.958049 131.370239 90.625667 131.702622 
C 90.293284 132.035004 90.106527 132.485875 90.106527 132.955936 
C 90.106527 133.425996 90.293284 133.876867 90.625667 134.20925 
C 90.958049 134.541633 91.40892 134.72839 91.878981 134.72839 
z
" clip-path="url(#p2c5d2efac0)" style="fill: #57db5f; stroke: #57db5f; stroke-width: 0.886227"/>
    <path d="M 107.619729 146.483723 
C 108.089789 146.483723 108.54066 146.296966 108.873043 145.964583 
C 109.205425 145.6322 109.392182 145.181329 109.392182 144.711269 
C 109.392182 144.241209 109.205425 143.790338 108.873043 143.457955 
C 108.54066 143.125572 108.089789 142.938815 107.619729 142.938815 
C 107.149668 142.938815 106.698797 143.125572 106.366414 143.457955 
C 106.034032 143.790338 105.847275 144.241209 105.847275 144.711269 
C 105.847275 145.181329 106.034032 145.6322 106.366414 145.964583 
C 106.698797 146.296966 107.149668 146.483723 107.619729 146.483723 
z
" clip-path="url(#p2c5d2efac0)" style="fill: #5f57db; stroke: #5f57db; stroke-width: 0.886227"/>
    <path d="M 59.476075 106.696441 
C 59.946136 106.696441 60.397007 106.509684 60.729389 106.177301 
C 61.061772 105.844918 61.248529 105.394047 61.248529 104.923987 
C 61.248529 104.453927 61.061772 104.003056 60.729389 103.670673 
C 60.397007 103.33829 59.946136 103.151533 59.476075 103.151533 
C 59.006015 103.151533 58.555144 103.33829 58.222761 103.670673 
C 57.890378 104.003056 57.703621 104.453927 57.703621 104.923987 
C 57.703621 105.394047 57.890378 105.844918 58.222761 106.177301 
C 58.555144 106.509684 59.006015 106.696441 59.476075 106.696441 
z
" clip-path="url(#p2c5d2efac0)" style="fill: #5f57db; stroke: #5f57db; stroke-width: 0.886227"/>
    <path d="M 186.707389 238.717876 
C 187.177449 238.717876 187.62832 238.531119 187.960703 238.198737 
C 188.293085 237.866354 188.479842 237.415483 188.479842 236.945422 
C 188.479842 236.475362 188.293085 236.024491 187.960703 235.692108 
C 187.62832 235.359726 187.177449 235.172969 186.707389 235.172969 
C 186.237328 235.172969 185.786457 235.359726 185.454074 235.692108 
C 185.121692 236.024491 184.934935 236.475362 184.934935 236.945422 
C 184.934935 237.415483 185.121692 237.866354 185.454074 238.198737 
C 185.786457 238.531119 186.237328 238.717876 186.707389 238.717876 
z
" clip-path="url(#p2c5d2efac0)" style="fill: #5f57db; stroke: #5f57db; stroke-width: 0.886227"/>
    <path d="M 155.993734 203.451876 
C 156.463794 203.451876 156.914666 203.26512 157.247048 202.932737 
C 157.579431 202.600354 157.766188 202.149483 157.766188 201.679423 
C 157.766188 201.209362 157.579431 200.758491 157.247048 200.426108 
C 156.914666 200.093726 156.463794 199.906969 155.993734 199.906969 
C 155.523674 199.906969 155.072803 200.093726 154.74042 200.426108 
C 154.408037 200.758491 154.22128 201.209362 154.22128 201.679423 
C 154.22128 202.149483 154.408037 202.600354 154.74042 202.932737 
C 155.072803 203.26512 155.523674 203.451876 155.993734 203.451876 
z
" clip-path="url(#p2c5d2efac0)" style="fill: #5f57db; stroke: #5f57db; stroke-width: 0.886227"/>
    <path d="M 217.421043 245.951928 
C 217.891103 245.951928 218.341974 245.765171 218.674357 245.432788 
C 219.00674 245.100405 219.193497 244.649534 219.193497 244.179474 
C 219.193497 243.709413 219.00674 243.258542 218.674357 242.92616 
C 218.341974 242.593777 217.891103 242.40702 217.421043 242.40702 
C 216.950983 242.40702 216.500112 242.593777 216.167729 242.92616 
C 215.835346 243.258542 215.648589 243.709413 215.648589 244.179474 
C 215.648589 244.649534 215.835346 245.100405 216.167729 245.432788 
C 216.500112 245.765171 216.950983 245.951928 217.421043 245.951928 
z
" clip-path="url(#p2c5d2efac0)" style="fill: #5f57db; stroke: #5f57db; stroke-width: 0.886227"/>
    <path d="M 156.761576 188.079518 
C 157.231636 188.079518 157.682507 187.892761 158.01489 187.560378 
C 158.347272 187.227995 158.534029 186.777124 158.534029 186.307064 
C 158.534029 185.837003 158.347272 185.386132 158.01489 185.05375 
C 157.682507 184.721367 157.231636 184.53461 156.761576 184.53461 
C 156.291515 184.53461 155.840644 184.721367 155.508261 185.05375 
C 155.175879 185.386132 154.989122 185.837003 154.989122 186.307064 
C 154.989122 186.777124 155.175879 187.227995 155.508261 187.560378 
C 155.840644 187.892761 156.291515 188.079518 156.761576 188.079518 
z
" clip-path="url(#p2c5d2efac0)" style="fill: #57db5f; stroke: #57db5f; stroke-width: 0.886227"/>
   </g>
  </g>
  <g id="text_11">
   <!-- hrbrmstr's Fav Example Plot -->
   <g transform="translate(44.460938 34.4925) scale(0.16 -0.16)">
    <defs>
     <path id="ArialNarrow-Bold-68" d="M 1097 4581 
L 1097 2897 
Q 1269 3147 1476 3270 
Q 1684 3394 1928 3394 
Q 2253 3394 2472 3222 
Q 2691 3050 2784 2734 
Q 2853 2503 2853 1947 
L 2853 0 
L 2134 0 
L 2134 1753 
Q 2134 2363 2056 2516 
Q 1947 2722 1684 2722 
Q 1406 2722 1251 2498 
Q 1097 2275 1097 1663 
L 1097 0 
L 375 0 
L 375 4581 
L 1097 4581 
z
" transform="scale(0.015625)"/>
     <path id="ArialNarrow-Bold-72" d="M 1069 0 
L 347 0 
L 347 3319 
L 1016 3319 
L 1016 2847 
Q 1188 3178 1323 3286 
Q 1459 3394 1638 3394 
Q 1884 3394 2109 3228 
L 1884 2463 
Q 1706 2606 1547 2606 
Q 1397 2606 1283 2495 
Q 1169 2384 1119 2093 
Q 1069 1803 1069 1025 
L 1069 0 
z
" transform="scale(0.015625)"/>
     <path id="ArialNarrow-Bold-62" d="M 344 0 
L 344 4581 
L 1066 4581 
L 1066 2931 
Q 1231 3163 1429 3278 
Q 1628 3394 1856 3394 
Q 2338 3394 2670 2959 
Q 3003 2525 3003 1678 
Q 3003 834 2662 379 
Q 2322 -75 1863 -75 
Q 1628 -75 1400 69 
Q 1172 213 1013 488 
L 1013 0 
L 344 0 
z
M 1059 1731 
Q 1059 1303 1140 1078 
Q 1222 853 1372 736 
Q 1522 619 1688 619 
Q 1925 619 2094 867 
Q 2263 1116 2263 1653 
Q 2263 2219 2092 2470 
Q 1922 2722 1659 2722 
Q 1409 2722 1234 2478 
Q 1059 2234 1059 1731 
z
" transform="scale(0.015625)"/>
     <path id="ArialNarrow-Bold-6d" d="M 322 3319 
L 984 3319 
L 984 2866 
Q 1163 3131 1375 3262 
Q 1588 3394 1834 3394 
Q 2097 3394 2289 3262 
Q 2481 3131 2603 2866 
Q 2784 3131 2992 3262 
Q 3200 3394 3434 3394 
Q 3713 3394 3914 3261 
Q 4116 3128 4220 2881 
Q 4325 2634 4325 2122 
L 4325 0 
L 3603 0 
L 3603 1897 
Q 3603 2394 3515 2558 
Q 3428 2722 3222 2722 
Q 2981 2722 2834 2492 
Q 2688 2263 2688 1594 
L 2688 0 
L 1966 0 
L 1966 1819 
Q 1966 2359 1906 2516 
Q 1828 2722 1591 2722 
Q 1431 2722 1297 2615 
Q 1163 2509 1103 2304 
Q 1044 2100 1044 1613 
L 1044 0 
L 322 0 
L 322 3319 
z
" transform="scale(0.015625)"/>
     <path id="ArialNarrow-Bold-73" d="M 125 947 
L 847 1081 
Q 941 559 1428 559 
Q 1688 559 1816 659 
Q 1944 759 1944 919 
Q 1944 1028 1888 1091 
Q 1828 1153 1653 1200 
Q 766 1434 525 1647 
Q 225 1913 225 2375 
Q 225 2838 519 3116 
Q 813 3394 1372 3394 
Q 1906 3394 2184 3186 
Q 2463 2978 2575 2516 
L 1897 2363 
Q 1806 2763 1384 2763 
Q 1119 2763 1006 2686 
Q 894 2609 894 2488 
Q 894 2378 997 2306 
Q 1100 2231 1638 2081 
Q 2241 1913 2456 1672 
Q 2669 1431 2669 1031 
Q 2669 550 2339 237 
Q 2009 -75 1428 -75 
Q 900 -75 565 186 
Q 231 447 125 947 
z
" transform="scale(0.015625)"/>
     <path id="ArialNarrow-Bold-74" d="M 1622 3319 
L 1622 2619 
L 1131 2619 
L 1131 1281 
Q 1131 847 1153 778 
Q 1197 653 1331 653 
Q 1431 653 1619 738 
L 1681 56 
Q 1431 -75 1116 -75 
Q 841 -75 675 56 
Q 509 188 453 434 
Q 409 616 409 1172 
L 409 2619 
L 78 2619 
L 78 3319 
L 409 3319 
L 409 3978 
L 1131 4491 
L 1131 3319 
L 1622 3319 
z
" transform="scale(0.015625)"/>
     <path id="ArialNarrow-Bold-27" d="M 369 2953 
L 234 3806 
L 234 4581 
L 1019 4581 
L 1019 3806 
L 900 2953 
L 369 2953 
z
" transform="scale(0.015625)"/>
     <path id="ArialNarrow-Bold-20" transform="scale(0.015625)"/>
     <path id="ArialNarrow-Bold-46" d="M 388 0 
L 388 4581 
L 2963 4581 
L 2963 3806 
L 1144 3806 
L 1144 2722 
L 2716 2722 
L 2716 1947 
L 1144 1947 
L 1144 0 
L 388 0 
z
" transform="scale(0.015625)"/>
     <path id="ArialNarrow-Bold-61" d="M 916 2306 
L 263 2450 
Q 381 2953 654 3173 
Q 928 3394 1441 3394 
Q 1897 3394 2137 3266 
Q 2378 3138 2481 2917 
Q 2584 2697 2584 2116 
L 2578 1091 
Q 2578 659 2612 448 
Q 2647 238 2741 0 
L 2028 0 
L 1934 363 
Q 1750 144 1539 34 
Q 1328 -75 1091 -75 
Q 694 -75 441 192 
Q 188 459 188 903 
Q 188 1184 291 1393 
Q 394 1603 581 1728 
Q 769 1853 1181 1950 
Q 1681 2066 1878 2166 
Q 1878 2441 1839 2527 
Q 1800 2613 1695 2667 
Q 1591 2722 1400 2722 
Q 1206 2722 1095 2634 
Q 984 2547 916 2306 
z
M 1878 1594 
Q 1741 1538 1450 1463 
Q 1116 1375 1013 1269 
Q 909 1163 909 994 
Q 909 803 1023 673 
Q 1138 544 1309 544 
Q 1463 544 1613 648 
Q 1763 753 1820 897 
Q 1878 1041 1878 1419 
L 1878 1594 
z
" transform="scale(0.015625)"/>
     <path id="ArialNarrow-Bold-76" d="M 1125 0 
L 28 3319 
L 784 3319 
L 1297 1625 
L 1444 1059 
L 1597 1625 
L 2116 3319 
L 2853 3319 
L 1772 0 
L 1125 0 
z
" transform="scale(0.015625)"/>
     <path id="ArialNarrow-Bold-45" d="M 384 0 
L 384 4581 
L 3172 4581 
L 3172 3806 
L 1141 3806 
L 1141 2791 
L 3028 2791 
L 3028 2019 
L 1141 2019 
L 1141 772 
L 3241 772 
L 3241 0 
L 384 0 
z
" transform="scale(0.015625)"/>
     <path id="ArialNarrow-Bold-78" d="M 31 0 
L 1013 1709 
L 72 3319 
L 953 3319 
L 1434 2406 
L 1941 3319 
L 2784 3319 
L 1863 1747 
L 2872 0 
L 1988 0 
L 1434 1028 
L 872 0 
L 31 0 
z
" transform="scale(0.015625)"/>
     <path id="ArialNarrow-Bold-70" d="M 356 3319 
L 1028 3319 
L 1028 2831 
Q 1166 3094 1391 3244 
Q 1616 3394 1875 3394 
Q 2341 3394 2677 2950 
Q 3013 2506 3013 1691 
Q 3013 834 2675 379 
Q 2338 -75 1872 -75 
Q 1656 -75 1470 29 
Q 1284 134 1078 409 
L 1078 -1263 
L 356 -1263 
L 356 3319 
z
M 1069 1716 
Q 1069 1153 1251 887 
Q 1434 622 1694 622 
Q 1941 622 2109 867 
Q 2278 1113 2278 1669 
Q 2278 2197 2104 2448 
Q 1931 2700 1681 2700 
Q 1419 2700 1244 2454 
Q 1069 2209 1069 1716 
z
" transform="scale(0.015625)"/>
     <path id="ArialNarrow-Bold-6c" d="M 378 0 
L 378 4581 
L 1100 4581 
L 1100 0 
L 378 0 
z
" transform="scale(0.015625)"/>
     <path id="ArialNarrow-Bold-65" d="M 1956 1056 
L 2672 909 
Q 2528 409 2225 167 
Q 1922 -75 1488 -75 
Q 884 -75 556 328 
Q 169 797 169 1641 
Q 169 2472 559 2972 
Q 891 3394 1416 3394 
Q 2000 3394 2331 2963 
Q 2713 2469 2713 1506 
L 2709 1406 
L 906 1406 
Q 913 1013 1083 797 
Q 1253 581 1494 581 
Q 1841 581 1956 1056 
z
M 1997 1944 
Q 1988 2331 1831 2526 
Q 1675 2722 1459 2722 
Q 1231 2722 1075 2519 
Q 916 2313 919 1944 
L 1997 1944 
z
" transform="scale(0.015625)"/>
     <path id="ArialNarrow-Bold-50" d="M 381 0 
L 381 4581 
L 1600 4581 
Q 2281 4581 2491 4516 
Q 2825 4409 3042 4062 
Q 3259 3716 3259 3169 
Q 3259 2672 3071 2336 
Q 2884 2000 2603 1864 
Q 2322 1728 1634 1728 
L 1138 1728 
L 1138 0 
L 381 0 
z
M 1138 3806 
L 1138 2506 
L 1556 2506 
Q 1978 2506 2129 2565 
Q 2281 2625 2378 2779 
Q 2475 2934 2475 3159 
Q 2475 3388 2375 3544 
Q 2275 3700 2128 3753 
Q 1981 3806 1506 3806 
L 1138 3806 
z
" transform="scale(0.015625)"/>
     <path id="ArialNarrow-Bold-6f" d="M 209 1706 
Q 209 2194 403 2594 
Q 597 2994 909 3194 
Q 1222 3394 1613 3394 
Q 2269 3394 2644 2880 
Q 3019 2366 3019 1678 
Q 3019 1166 2823 753 
Q 2628 341 2311 133 
Q 1994 -75 1616 -75 
Q 1009 -75 609 387 
Q 209 850 209 1706 
z
M 947 1659 
Q 947 1156 1144 898 
Q 1341 641 1619 641 
Q 1891 641 2084 900 
Q 2278 1159 2278 1666 
Q 2278 2159 2081 2418 
Q 1884 2678 1609 2678 
Q 1338 2678 1142 2418 
Q 947 2159 947 1659 
z
" transform="scale(0.015625)"/>
    </defs>
    <use xlink:href="#ArialNarrow-Bold-68"/>
    <use xlink:href="#ArialNarrow-Bold-72" x="50.097656"/>
    <use xlink:href="#ArialNarrow-Bold-62" x="81.982422"/>
    <use xlink:href="#ArialNarrow-Bold-72" x="132.080078"/>
    <use xlink:href="#ArialNarrow-Bold-6d" x="163.964844"/>
    <use xlink:href="#ArialNarrow-Bold-73" x="236.865234"/>
    <use xlink:href="#ArialNarrow-Bold-74" x="282.470703"/>
    <use xlink:href="#ArialNarrow-Bold-72" x="309.765625"/>
    <use xlink:href="#ArialNarrow-Bold-27" x="341.650391"/>
    <use xlink:href="#ArialNarrow-Bold-73" x="361.132812"/>
    <use xlink:href="#ArialNarrow-Bold-20" x="406.738281"/>
    <use xlink:href="#ArialNarrow-Bold-46" x="429.541016"/>
    <use xlink:href="#ArialNarrow-Bold-61" x="479.638672"/>
    <use xlink:href="#ArialNarrow-Bold-76" x="525.244141"/>
    <use xlink:href="#ArialNarrow-Bold-20" x="570.849609"/>
    <use xlink:href="#ArialNarrow-Bold-45" x="593.652344"/>
    <use xlink:href="#ArialNarrow-Bold-78" x="648.339844"/>
    <use xlink:href="#ArialNarrow-Bold-61" x="693.945312"/>
    <use xlink:href="#ArialNarrow-Bold-6d" x="739.550781"/>
    <use xlink:href="#ArialNarrow-Bold-70" x="812.451172"/>
    <use xlink:href="#ArialNarrow-Bold-6c" x="862.548828"/>
    <use xlink:href="#ArialNarrow-Bold-65" x="885.351562"/>
    <use xlink:href="#ArialNarrow-Bold-20" x="930.957031"/>
    <use xlink:href="#ArialNarrow-Bold-50" x="953.759766"/>
    <use xlink:href="#ArialNarrow-Bold-6c" x="1008.447266"/>
    <use xlink:href="#ArialNarrow-Bold-6f" x="1031.25"/>
    <use xlink:href="#ArialNarrow-Bold-74" x="1081.347656"/>
   </g>
  </g>
  <g id="text_12">
   <!-- Weight (tons) -->
   <g transform="translate(331.028656 316.057781) scale(0.09 -0.09)">
    <defs>
     <path id="ArialNarrow-57" d="M 1069 0 
L 72 4581 
L 581 4581 
L 1153 1578 
Q 1244 1116 1313 641 
L 1481 1488 
L 2197 4581 
L 2797 4581 
L 3334 2263 
Q 3531 1416 3628 641 
Q 3700 1088 3813 1638 
L 4403 4581 
L 4903 4581 
L 3872 0 
L 3394 0 
L 2600 3491 
L 2481 4028 
Q 2428 3728 2372 3491 
L 1575 0 
L 1069 0 
z
" transform="scale(0.015625)"/>
     <path id="ArialNarrow-65" d="M 2200 1069 
L 2675 997 
Q 2556 466 2245 195 
Q 1934 -75 1475 -75 
Q 897 -75 539 364 
Q 181 803 181 1631 
Q 181 2491 542 2942 
Q 903 3394 1456 3394 
Q 1984 3394 2337 2950 
Q 2691 2506 2691 1666 
L 2688 1516 
L 656 1516 
Q 684 956 915 672 
Q 1147 388 1478 388 
Q 1997 388 2200 1069 
z
M 684 1978 
L 2203 1978 
Q 2172 2409 2019 2622 
Q 1797 2931 1453 2931 
Q 1144 2931 925 2673 
Q 706 2416 684 1978 
z
" transform="scale(0.015625)"/>
     <path id="ArialNarrow-69" d="M 338 3934 
L 338 4581 
L 797 4581 
L 797 3934 
L 338 3934 
z
M 338 0 
L 338 3319 
L 797 3319 
L 797 0 
L 338 0 
z
" transform="scale(0.015625)"/>
     <path id="ArialNarrow-67" d="M 250 -275 
L 700 -356 
Q 731 -622 887 -751 
Q 1044 -881 1322 -881 
Q 1625 -881 1804 -736 
Q 1984 -591 2050 -303 
Q 2091 -128 2091 434 
Q 1941 219 1753 109 
Q 1566 0 1338 0 
Q 850 0 528 413 
Q 159 888 159 1684 
Q 159 2219 321 2619 
Q 484 3019 748 3206 
Q 1013 3394 1341 3394 
Q 1581 3394 1779 3275 
Q 1978 3156 2131 2919 
L 2131 3319 
L 2556 3319 
L 2556 450 
Q 2556 -316 2431 -642 
Q 2306 -969 2022 -1158 
Q 1738 -1347 1338 -1347 
Q 809 -1347 525 -1062 
Q 241 -778 250 -275 
z
M 634 1719 
Q 634 1066 850 766 
Q 1066 466 1378 466 
Q 1691 466 1909 759 
Q 2128 1053 2128 1694 
Q 2128 2319 1903 2623 
Q 1678 2928 1356 2928 
Q 1069 2928 851 2623 
Q 634 2319 634 1719 
z
" transform="scale(0.015625)"/>
     <path id="ArialNarrow-68" d="M 338 0 
L 338 4581 
L 797 4581 
L 797 2938 
Q 959 3166 1164 3280 
Q 1369 3394 1616 3394 
Q 2050 3394 2301 3117 
Q 2553 2841 2553 2103 
L 2553 0 
L 2094 0 
L 2094 2103 
Q 2094 2534 1941 2721 
Q 1788 2909 1519 2909 
Q 1219 2909 1008 2668 
Q 797 2428 797 1816 
L 797 0 
L 338 0 
z
" transform="scale(0.015625)"/>
     <path id="ArialNarrow-74" d="M 1366 503 
L 1428 6 
Q 1238 -44 1084 -44 
Q 844 -44 697 51 
Q 550 147 495 312 
Q 441 478 441 972 
L 441 2881 
L 103 2881 
L 103 3319 
L 441 3319 
L 441 4141 
L 900 4478 
L 900 3319 
L 1366 3319 
L 1366 2881 
L 900 2881 
L 900 941 
Q 900 672 941 594 
Q 1000 481 1163 481 
Q 1241 481 1366 503 
z
" transform="scale(0.015625)"/>
     <path id="ArialNarrow-20" transform="scale(0.015625)"/>
     <path id="ArialNarrow-28" d="M 1225 -1347 
Q 881 -809 598 -21 
Q 316 766 316 1663 
Q 316 3181 1225 4659 
L 1556 4659 
Q 1206 3925 1073 3520 
Q 941 3116 864 2631 
Q 788 2147 788 1656 
Q 788 156 1556 -1347 
L 1225 -1347 
z
" transform="scale(0.015625)"/>
     <path id="ArialNarrow-6f" d="M 166 1659 
Q 166 2519 527 2956 
Q 888 3394 1441 3394 
Q 1984 3394 2350 2956 
Q 2716 2519 2716 1694 
Q 2716 800 2356 362 
Q 1997 -75 1441 -75 
Q 894 -75 530 364 
Q 166 803 166 1659 
z
M 638 1659 
Q 638 1016 872 702 
Q 1106 388 1453 388 
Q 1778 388 2011 705 
Q 2244 1022 2244 1659 
Q 2244 2300 2009 2614 
Q 1775 2928 1428 2928 
Q 1100 2928 869 2612 
Q 638 2297 638 1659 
z
" transform="scale(0.015625)"/>
     <path id="ArialNarrow-6e" d="M 338 0 
L 338 3319 
L 753 3319 
L 753 2847 
Q 903 3122 1120 3258 
Q 1338 3394 1619 3394 
Q 1838 3394 2023 3308 
Q 2209 3222 2323 3083 
Q 2438 2944 2494 2722 
Q 2550 2500 2550 2041 
L 2550 0 
L 2088 0 
L 2088 2019 
Q 2088 2384 2025 2553 
Q 1963 2722 1830 2814 
Q 1697 2906 1522 2906 
Q 1191 2906 994 2659 
Q 797 2413 797 1813 
L 797 0 
L 338 0 
z
" transform="scale(0.015625)"/>
     <path id="ArialNarrow-73" d="M 163 991 
L 619 1078 
Q 659 728 840 558 
Q 1022 388 1322 388 
Q 1622 388 1786 536 
Q 1950 684 1950 913 
Q 1950 1109 1809 1219 
Q 1713 1294 1341 1406 
Q 803 1572 622 1687 
Q 441 1803 341 1997 
Q 241 2191 241 2438 
Q 241 2863 512 3128 
Q 784 3394 1266 3394 
Q 1569 3394 1798 3284 
Q 2028 3175 2150 2990 
Q 2272 2806 2319 2463 
L 1869 2388 
Q 1806 2931 1278 2931 
Q 978 2931 831 2811 
Q 684 2691 684 2503 
Q 684 2319 825 2213 
Q 909 2150 1325 2013 
Q 1897 1828 2065 1720 
Q 2234 1613 2328 1427 
Q 2422 1241 2422 984 
Q 2422 509 2120 215 
Q 1819 -78 1297 -78 
Q 319 -78 163 991 
z
" transform="scale(0.015625)"/>
     <path id="ArialNarrow-29" d="M 522 -1347 
L 191 -1347 
Q 956 156 956 1656 
Q 956 2147 879 2631 
Q 803 3116 672 3520 
Q 541 3925 191 4659 
L 522 4659 
Q 1431 3181 1431 1663 
Q 1431 791 1159 5 
Q 888 -781 522 -1347 
z
" transform="scale(0.015625)"/>
    </defs>
    <use xlink:href="#ArialNarrow-57"/>
    <use xlink:href="#ArialNarrow-65" x="76.017578"/>
    <use xlink:href="#ArialNarrow-69" x="121.623047"/>
    <use xlink:href="#ArialNarrow-67" x="139.835938"/>
    <use xlink:href="#ArialNarrow-68" x="185.441406"/>
    <use xlink:href="#ArialNarrow-74" x="231.046875"/>
    <use xlink:href="#ArialNarrow-20" x="253.849609"/>
    <use xlink:href="#ArialNarrow-28" x="276.652344"/>
    <use xlink:href="#ArialNarrow-74" x="303.947266"/>
    <use xlink:href="#ArialNarrow-6f" x="326.75"/>
    <use xlink:href="#ArialNarrow-6e" x="372.355469"/>
    <use xlink:href="#ArialNarrow-73" x="417.960938"/>
    <use xlink:href="#ArialNarrow-29" x="458.976562"/>
   </g>
  </g>
  <g id="text_13">
   <!-- Miles-per-gallon -->
   <g transform="translate(29.482031 115.152344) rotate(-90) scale(0.09 -0.09)">
    <defs>
     <path id="ArialNarrow-4d" d="M 391 0 
L 391 4581 
L 1138 4581 
L 2028 1338 
L 2206 659 
Q 2272 913 2406 1394 
L 3306 4581 
L 3975 4581 
L 3975 0 
L 3497 0 
L 3497 3834 
L 2403 0 
L 1956 0 
L 869 3900 
L 869 0 
L 391 0 
z
" transform="scale(0.015625)"/>
     <path id="ArialNarrow-6c" d="M 325 0 
L 325 4581 
L 784 4581 
L 784 0 
L 325 0 
z
" transform="scale(0.015625)"/>
     <path id="ArialNarrow-2d" d="M 166 1375 
L 166 1941 
L 1581 1941 
L 1581 1375 
L 166 1375 
z
" transform="scale(0.015625)"/>
     <path id="ArialNarrow-70" d="M 338 -1272 
L 338 3319 
L 759 3319 
L 759 2888 
Q 916 3156 1106 3275 
Q 1297 3394 1544 3394 
Q 1866 3394 2125 3203 
Q 2384 3013 2542 2623 
Q 2700 2234 2700 1688 
Q 2700 841 2345 383 
Q 1991 -75 1513 -75 
Q 1300 -75 1115 34 
Q 931 144 797 344 
L 797 -1272 
L 338 -1272 
z
M 753 1641 
Q 753 997 968 692 
Q 1184 388 1491 388 
Q 1784 388 2006 703 
Q 2228 1019 2228 1678 
Q 2228 2328 2012 2640 
Q 1797 2953 1488 2953 
Q 1209 2953 981 2617 
Q 753 2281 753 1641 
z
" transform="scale(0.015625)"/>
     <path id="ArialNarrow-72" d="M 338 0 
L 338 3319 
L 753 3319 
L 753 2816 
Q 913 3166 1045 3280 
Q 1178 3394 1344 3394 
Q 1575 3394 1816 3213 
L 1659 2691 
Q 1488 2813 1325 2813 
Q 1178 2813 1056 2709 
Q 934 2606 884 2422 
Q 797 2100 797 1738 
L 797 0 
L 338 0 
z
" transform="scale(0.015625)"/>
     <path id="ArialNarrow-61" d="M 2113 409 
Q 1881 169 1631 47 
Q 1381 -75 1113 -75 
Q 688 -75 434 181 
Q 181 438 181 872 
Q 181 1159 300 1381 
Q 419 1603 625 1728 
Q 831 1853 1250 1913 
Q 1813 1994 2075 2106 
L 2078 2250 
Q 2078 2591 1956 2728 
Q 1784 2928 1428 2928 
Q 1106 2928 947 2795 
Q 788 2663 713 2297 
L 259 2372 
Q 356 2906 651 3150 
Q 947 3394 1497 3394 
Q 1925 3394 2169 3233 
Q 2413 3072 2477 2834 
Q 2541 2597 2541 2141 
L 2541 1391 
Q 2541 603 2570 398 
Q 2600 194 2688 0 
L 2206 0 
Q 2134 172 2113 409 
z
M 2075 1666 
Q 1822 1541 1322 1453 
Q 1031 1403 915 1339 
Q 800 1275 736 1158 
Q 672 1041 672 888 
Q 672 650 819 508 
Q 966 366 1225 366 
Q 1472 366 1673 494 
Q 1875 622 1975 836 
Q 2075 1050 2075 1459 
L 2075 1666 
z
" transform="scale(0.015625)"/>
    </defs>
    <use xlink:href="#ArialNarrow-4d"/>
    <use xlink:href="#ArialNarrow-69" x="68.310547"/>
    <use xlink:href="#ArialNarrow-6c" x="86.523438"/>
    <use xlink:href="#ArialNarrow-65" x="104.736328"/>
    <use xlink:href="#ArialNarrow-73" x="150.341797"/>
    <use xlink:href="#ArialNarrow-2d" x="191.357422"/>
    <use xlink:href="#ArialNarrow-70" x="218.652344"/>
    <use xlink:href="#ArialNarrow-65" x="264.257812"/>
    <use xlink:href="#ArialNarrow-72" x="309.863281"/>
    <use xlink:href="#ArialNarrow-2d" x="337.158203"/>
    <use xlink:href="#ArialNarrow-67" x="364.453125"/>
    <use xlink:href="#ArialNarrow-61" x="410.058594"/>
    <use xlink:href="#ArialNarrow-6c" x="455.664062"/>
    <use xlink:href="#ArialNarrow-6c" x="473.876953"/>
    <use xlink:href="#ArialNarrow-6f" x="492.089844"/>
    <use xlink:href="#ArialNarrow-6e" x="537.695312"/>
   </g>
  </g>
  <g id="patch_3">
   <path d="M 388.617969 214.265156 
L 437.76 214.265156 
L 437.76 144.785125 
L 388.617969 144.785125 
L 388.617969 214.265156 
z
" style="fill: none"/>
  </g>
  <g id="text_14">
   <!-- factor(gear) -->
   <g transform="translate(388.817969 156.332391) scale(0.115 -0.115)">
    <defs>
     <path id="ArialNarrow-66" d="M 469 0 
L 469 2881 
L 59 2881 
L 59 3319 
L 469 3319 
L 469 3672 
Q 469 4063 550 4258 
Q 631 4453 798 4556 
Q 966 4659 1219 4659 
Q 1416 4659 1650 4603 
L 1581 4113 
Q 1438 4144 1309 4144 
Q 1103 4144 1014 4036 
Q 925 3928 925 3625 
L 925 3319 
L 1456 3319 
L 1456 2881 
L 925 2881 
L 925 0 
L 469 0 
z
" transform="scale(0.015625)"/>
     <path id="ArialNarrow-63" d="M 2122 1216 
L 2575 1144 
Q 2497 550 2183 237 
Q 1869 -75 1428 -75 
Q 894 -75 548 364 
Q 203 803 203 1663 
Q 203 2528 551 2961 
Q 900 3394 1447 3394 
Q 1869 3394 2158 3131 
Q 2447 2869 2528 2344 
L 2081 2259 
Q 2016 2597 1853 2764 
Q 1691 2931 1463 2931 
Q 1122 2931 898 2629 
Q 675 2328 675 1672 
Q 675 994 889 691 
Q 1103 388 1438 388 
Q 1700 388 1886 589 
Q 2072 791 2122 1216 
z
" transform="scale(0.015625)"/>
    </defs>
    <use xlink:href="#ArialNarrow-66"/>
    <use xlink:href="#ArialNarrow-61" x="22.802734"/>
    <use xlink:href="#ArialNarrow-63" x="68.408203"/>
    <use xlink:href="#ArialNarrow-74" x="109.423828"/>
    <use xlink:href="#ArialNarrow-6f" x="132.226562"/>
    <use xlink:href="#ArialNarrow-72" x="177.832031"/>
    <use xlink:href="#ArialNarrow-28" x="205.126953"/>
    <use xlink:href="#ArialNarrow-67" x="232.421875"/>
    <use xlink:href="#ArialNarrow-65" x="278.027344"/>
    <use xlink:href="#ArialNarrow-61" x="323.632812"/>
    <use xlink:href="#ArialNarrow-72" x="369.238281"/>
    <use xlink:href="#ArialNarrow-29" x="396.533203"/>
   </g>
  </g>
  <g id="patch_4">
   <path d="M 388.817969 176.945156 
L 405.377969 176.945156 
L 405.377969 160.385156 
L 388.817969 160.385156 
L 388.817969 176.945156 
z
" clip-path="url(#p9a7ee9f00c)" style="fill: none"/>
  </g>
  <g id="line2d_21">
   <path d="M 397.097969 168.665156 
" clip-path="url(#p9a7ee9f00c)" style="fill: none; stroke: #1f77b4; stroke-width: 1.5; stroke-linecap: square"/>
   <defs>
    <path id="m2ffee7969b" d="M 0 1.772454 
C 0.47006 1.772454 0.920931 1.585697 1.253314 1.253314 
C 1.585697 0.920931 1.772454 0.47006 1.772454 0 
C 1.772454 -0.47006 1.585697 -0.920931 1.253314 -1.253314 
C 0.920931 -1.585697 0.47006 -1.772454 0 -1.772454 
C -0.47006 -1.772454 -0.920931 -1.585697 -1.253314 -1.253314 
C -1.585697 -0.920931 -1.772454 -0.47006 -1.772454 0 
C -1.772454 0.47006 -1.585697 0.920931 -1.253314 1.253314 
C -0.920931 1.585697 -0.47006 1.772454 0 1.772454 
z
" style="stroke: #db5f57; stroke-width: 0.886227"/>
   </defs>
   <g clip-path="url(#p9a7ee9f00c)">
    <use xlink:href="#m2ffee7969b" x="397.097969" y="168.665156" style="fill: #db5f57; stroke: #db5f57; stroke-width: 0.886227"/>
   </g>
  </g>
  <g id="text_15">
   <!-- 3 -->
   <g transform="translate(408.377969 171.0435) scale(0.092 -0.092)">
    <use xlink:href="#ArialNarrow-33"/>
   </g>
  </g>
  <g id="patch_5">
   <path d="M 388.817969 195.505156 
L 405.377969 195.505156 
L 405.377969 178.945156 
L 388.817969 178.945156 
L 388.817969 195.505156 
z
" clip-path="url(#pe70e4b0e45)" style="fill: none"/>
  </g>
  <g id="line2d_22">
   <path d="M 397.097969 187.225156 
" clip-path="url(#pe70e4b0e45)" style="fill: none; stroke: #1f77b4; stroke-width: 1.5; stroke-linecap: square"/>
   <defs>
    <path id="m06ccbc375d" d="M 0 1.772454 
C 0.47006 1.772454 0.920931 1.585697 1.253314 1.253314 
C 1.585697 0.920931 1.772454 0.47006 1.772454 0 
C 1.772454 -0.47006 1.585697 -0.920931 1.253314 -1.253314 
C 0.920931 -1.585697 0.47006 -1.772454 0 -1.772454 
C -0.47006 -1.772454 -0.920931 -1.585697 -1.253314 -1.253314 
C -1.585697 -0.920931 -1.772454 -0.47006 -1.772454 0 
C -1.772454 0.47006 -1.585697 0.920931 -1.253314 1.253314 
C -0.920931 1.585697 -0.47006 1.772454 0 1.772454 
z
" style="stroke: #57db5f; stroke-width: 0.886227"/>
   </defs>
   <g clip-path="url(#pe70e4b0e45)">
    <use xlink:href="#m06ccbc375d" x="397.097969" y="187.225156" style="fill: #57db5f; stroke: #57db5f; stroke-width: 0.886227"/>
   </g>
  </g>
  <g id="text_16">
   <!-- 4 -->
   <g transform="translate(408.377969 189.6035) scale(0.092 -0.092)">
    <use xlink:href="#ArialNarrow-34"/>
   </g>
  </g>
  <g id="patch_6">
   <path d="M 388.817969 214.065156 
L 405.377969 214.065156 
L 405.377969 197.505156 
L 388.817969 197.505156 
L 388.817969 214.065156 
z
" clip-path="url(#p2527fe77fd)" style="fill: none"/>
  </g>
  <g id="line2d_23">
   <path d="M 397.097969 205.785156 
" clip-path="url(#p2527fe77fd)" style="fill: none; stroke: #1f77b4; stroke-width: 1.5; stroke-linecap: square"/>
   <defs>
    <path id="md1b3feae92" d="M 0 1.772454 
C 0.47006 1.772454 0.920931 1.585697 1.253314 1.253314 
C 1.585697 0.920931 1.772454 0.47006 1.772454 0 
C 1.772454 -0.47006 1.585697 -0.920931 1.253314 -1.253314 
C 0.920931 -1.585697 0.47006 -1.772454 0 -1.772454 
C -0.47006 -1.772454 -0.920931 -1.585697 -1.253314 -1.253314 
C -1.585697 -0.920931 -1.772454 -0.47006 -1.772454 0 
C -1.772454 0.47006 -1.585697 0.920931 -1.253314 1.253314 
C -0.920931 1.585697 -0.47006 1.772454 0 1.772454 
z
" style="stroke: #5f57db; stroke-width: 0.886227"/>
   </defs>
   <g clip-path="url(#p2527fe77fd)">
    <use xlink:href="#md1b3feae92" x="397.097969" y="205.785156" style="fill: #5f57db; stroke: #5f57db; stroke-width: 0.886227"/>
   </g>
  </g>
  <g id="text_17">
   <!-- 5 -->
   <g transform="translate(408.377969 208.1635) scale(0.092 -0.092)">
    <use xlink:href="#ArialNarrow-35"/>
   </g>
  </g>
 </g>
 <defs>
  <clipPath id="p2c5d2efac0">
   <rect x="44.460938" y="62.65" width="330.333031" height="233.750281"/>
  </clipPath>
  <clipPath id="p9a7ee9f00c">
   <path d="M 388.817969 176.945156 
L 388.817969 160.385156 
L 405.377969 160.385156 
L 405.377969 176.945156 
"/>
  </clipPath>
  <clipPath id="pe70e4b0e45">
   <path d="M 388.817969 195.505156 
L 388.817969 178.945156 
L 405.377969 178.945156 
L 405.377969 195.505156 
"/>
  </clipPath>
  <clipPath id="p2527fe77fd">
   <path d="M 388.817969 214.065156 
L 388.817969 197.505156 
L 405.377969 197.505156 
L 405.377969 214.065156 
"/>
  </clipPath>
 </defs>
</svg>
